# xmcd
#
# Track frame offsets:
#	150
#	15286
#	32021
#	46800
#	64403
#	77455
#	89746
#	103179
#	120890
#	137920
#	154256
#	165950
#
# Disc length: 2356 seconds
# Revision: 0
# Processed by: cddbd v1.5.2PL0 Copyright (c) Steve Scherf et al.
# Submitted via: dBpowerAMP V12.0
#
DISCID=8c09320c
DTITLE=Kati Penn - My Turn To Cry
DYEAR=2008
DGENRE=Bluegrass
TTITLE0=Too Far Gone
TTITLE1=Thirteen
TTITLE2=Bare Hands
TTITLE3=Gonna Take A Train
TTITLE4=Crazy Love
TTITLE5=Booth
TTITLE6=Golden Ring
TTITLE7=Sun's Gonna Shine
TTITLE8=Never Gonna Change
TTITLE9=Johnny and Salley
TTITLE10=My Turn To Cry
TTITLE11=I'm Goiing Home
EXTD=
EXTT0=
EXTT1=
EXTT2=
EXTT3=
EXTT4=
EXTT5=
EXTT6=
EXTT7=
EXTT8=
EXTT9=
EXTT10=
EXTT11=
PLAYORDER=
